<svg width="2117" height="401" viewBox="0 0 2117 401" fill="none" xmlns="http://www.w3.org/2000/svg">
<mask id="mask0_15_71" style="mask-type:alpha" maskUnits="userSpaceOnUse" x="0" y="0" width="2117" height="401">
<path d="M858.014 0.5L0.211347 400.5" stroke="#09090B"/>
<path d="M867.317 0.5L115.762 400.5" stroke="#09090B"/>
<path d="M876.619 0.5L212.13 400.5" stroke="#09090B"/>
<path d="M885.921 0.5L294.452 400.5" stroke="#09090B"/>
<path d="M895.224 0.5L366.195 400.5" stroke="#09090B"/>
<path d="M904.526 0.5L429.784 400.5" stroke="#09090B"/>
<path d="M913.828 0.5L486.97 400.5" stroke="#09090B"/>
<path d="M923.131 0.5L539.046 400.5" stroke="#09090B"/>
<path d="M932.433 0.5L586.992 400.5" stroke="#09090B"/>
<path d="M941.735 0.5L631.568 400.5" stroke="#09090B"/>
<path d="M951.038 0.5L673.367 400.5" stroke="#09090B"/>
<path d="M960.34 0.5L712.868 400.5" stroke="#09090B"/>
<path d="M969.642 0.5L750.459 400.5" stroke="#09090B"/>
<path d="M978.945 0.5L786.458 400.5" stroke="#09090B"/>
<path d="M988.247 0.5L821.133 400.5" stroke="#09090B"/>
<path d="M997.549 0.5L854.713 400.5" stroke="#09090B"/>
<path d="M1006.85 0.5L887.394 400.5" stroke="#09090B"/>
<path d="M1016.15 0.5L919.349 400.5" stroke="#09090B"/>
<path d="M1025.46 0.5L950.733 400.5" stroke="#09090B"/>
<path d="M1034.76 0.5L981.685 400.5" stroke="#09090B"/>
<path d="M1044.06 0.5L1012.34 400.5" stroke="#09090B"/>
<path d="M1053.36 0.5L1042.81 400.5" stroke="#09090B"/>
<path d="M1062.67 0.5L1073.22 400.5" stroke="#09090B"/>
<path d="M1071.97 0.5L1103.69 400.5" stroke="#09090B"/>
<path d="M1081.27 0.5L1134.34 400.5" stroke="#09090B"/>
<path d="M1090.57 0.5L1165.3 400.5" stroke="#09090B"/>
<path d="M1099.88 0.5L1196.68 400.5" stroke="#09090B"/>
<path d="M1109.18 0.5L1228.63 400.5" stroke="#09090B"/>
<path d="M1118.48 0.5L1261.32 400.5" stroke="#09090B"/>
<path d="M1127.78 0.5L1294.9 400.5" stroke="#09090B"/>
<path d="M1137.08 0.5L1329.57 400.5" stroke="#09090B"/>
<path d="M1146.39 0.5L1365.57 400.5" stroke="#09090B"/>
<path d="M1155.69 0.5L1403.16 400.5" stroke="#09090B"/>
<path d="M1164.99 0.5L1442.66 400.5" stroke="#09090B"/>
<path d="M1174.29 0.5L1484.46 400.5" stroke="#09090B"/>
<path d="M1183.6 0.5L1529.04 400.5" stroke="#09090B"/>
<path d="M1192.9 0.5L1576.98 400.5" stroke="#09090B"/>
<path d="M1202.2 0.5L1629.06 400.5" stroke="#09090B"/>
<path d="M1211.5 0.5L1686.24 400.5" stroke="#09090B"/>
<path d="M1220.81 0.5L1749.83 400.5" stroke="#09090B"/>
<path d="M1230.11 0.5L1821.58 400.5" stroke="#09090B"/>
<path d="M1239.41 0.5L1903.9 400.5" stroke="#09090B"/>
<path d="M1248.71 0.5L2000.27 400.5" stroke="#09090B"/>
<path d="M1258.01 0.5L2115.82 400.5" stroke="#09090B"/>
<path d="M858.014 0.5H1258.01" stroke="#09090B"/>
<path d="M858.014 0.5H1258.01" stroke="#09090B"/>
<path d="M858.014 0.5H1258.01" stroke="#09090B"/>
<path d="M858.014 0.500244H1258.01" stroke="#09090B"/>
<path d="M858.009 0.502319H1258.02" stroke="#09090B"/>
<path d="M857.988 0.512207H1258.04" stroke="#09090B"/>
<path d="M857.912 0.547913H1258.12" stroke="#09090B"/>
<path d="M857.688 0.652283H1258.34" stroke="#09090B"/>
<path d="M857.125 0.91449H1258.9" stroke="#09090B"/>
<path d="M855.864 1.50269H1260.16" stroke="#09090B"/>
<path d="M853.276 2.70972H1262.75" stroke="#09090B"/>
<path d="M848.329 5.0163H1267.7" stroke="#09090B"/>
<path d="M839.414 9.17352H1276.61" stroke="#09090B"/>
<path d="M824.111 16.3092H1291.92" stroke="#09090B"/>
<path d="M798.91 28.061H1317.12" stroke="#09090B"/>
<path d="M758.852 46.7402H1357.18" stroke="#09090B"/>
<path d="M697.112 75.53H1418.92" stroke="#09090B"/>
<path d="M604.484 118.723H1511.54" stroke="#09090B"/>
<path d="M468.784 182.001H1647.24" stroke="#09090B"/>
<path d="M274.147 272.762H1841.88" stroke="#09090B"/>
<path d="M0.211914 400.5H2115.82" stroke="#09090B"/>
</mask>
<g mask="url(#mask0_15_71)">
<g filter="url(#filter0_f_15_71)">
<ellipse cx="1088.21" cy="225" rx="1000" ry="70.5" fill="#09090B"/>
<path d="M1088.21 155C1364.35 155 1614.33 162.891 1795.28 175.647C1885.76 182.026 1958.97 189.621 2009.54 198.052C2034.84 202.268 2054.45 206.689 2067.73 211.265C2074.38 213.554 2079.4 215.871 2082.76 218.202C2086.14 220.547 2087.71 222.822 2087.71 225C2087.71 227.178 2086.14 229.453 2082.76 231.798C2079.4 234.129 2074.38 236.446 2067.73 238.735C2054.45 243.311 2034.84 247.732 2009.54 251.948C1958.97 260.379 1885.76 267.974 1795.28 274.353C1614.33 287.109 1364.35 295 1088.21 295C812.077 295 562.09 287.109 381.14 274.353C290.663 267.974 217.458 260.379 166.878 251.948C141.585 247.732 121.972 243.311 108.691 238.735C102.047 236.446 97.0182 234.129 93.6597 231.798C90.2814 229.453 88.7114 227.178 88.7114 225C88.7114 222.822 90.2814 220.547 93.6597 218.202C97.0182 215.871 102.047 213.554 108.691 211.265C121.972 206.689 141.585 202.268 166.878 198.052C217.458 189.621 290.663 182.026 381.14 175.647C562.09 162.891 812.077 155 1088.21 155Z" stroke="#09090B"/>
</g>
</g>
<defs>
<filter id="filter0_f_15_71" x="-82.7886" y="-16.5" width="2342" height="483" filterUnits="userSpaceOnUse" color-interpolation-filters="sRGB">
<feFlood flood-opacity="0" result="BackgroundImageFix"/>
<feBlend mode="normal" in="SourceGraphic" in2="BackgroundImageFix" result="shape"/>
<feGaussianBlur stdDeviation="85.5" result="effect1_foregroundBlur_15_71"/>
</filter>
</defs>
</svg>
